<svg width="200" height="41" viewBox="0 0 200 41" fill="none" xmlns="http://www.w3.org/2000/svg">
<rect y="0.666992" width="200" height="40" rx="10" fill="#FFE812"/>
<path d="M31.9999 8.66699C25.3726 8.66699 20 13.2575 20 18.92C20 22.581 22.2461 25.7933 25.6247 27.6072C25.4409 28.2941 24.4435 32.0265 24.4038 32.3198C24.4038 32.3198 24.38 32.5401 24.5116 32.6241C24.6432 32.7081 24.7981 32.6428 24.7981 32.6428C25.1756 32.5857 29.1762 29.5406 29.8686 29.0118C30.5602 29.1179 31.2726 29.1731 31.9999 29.1731C38.6274 29.1731 43.9999 24.5827 43.9999 18.9201C43.9999 13.2575 38.6274 8.66699 31.9999 8.66699Z" fill="black"/>
<path d="M72.0428 15.371H65.8508V16.187H71.0828C71.0188 17.115 70.8748 18.011 70.5868 18.859L65.1628 19.243L65.3388 20.123L70.2828 19.643C69.4188 21.627 67.7868 23.339 65.1148 24.651L65.6588 25.419C70.5548 23.003 72.0428 19.275 72.0428 15.371ZM74.5388 27.787H75.5148V20.475H77.8508V19.659H75.5148V13.867H74.5388V27.787ZM86.0271 15.371H79.8351V16.187H85.0671C85.0031 17.115 84.8591 18.011 84.5711 18.859L79.1471 19.243L79.3231 20.123L84.2671 19.643C83.4031 21.627 81.7711 23.339 79.0991 24.651L79.6431 25.419C84.5391 23.003 86.0271 19.275 86.0271 15.371ZM88.5231 27.787H89.4991V20.475H91.8351V19.659H89.4991V13.867H88.5231V27.787ZM99.1475 14.859C96.2355 14.859 94.1555 16.267 94.1555 18.427C94.1555 20.475 96.0115 21.819 98.6675 21.963V25.115H92.8755V25.931H105.468V25.115H99.6275V21.963C102.3 21.819 104.14 20.475 104.14 18.427C104.14 16.267 102.076 14.859 99.1475 14.859ZM95.0835 18.427C95.0835 16.779 96.8115 15.643 99.1475 15.643C101.468 15.643 103.212 16.779 103.212 18.427C103.212 20.075 101.468 21.211 99.1475 21.211C96.8115 21.211 95.0835 20.075 95.0835 18.427ZM106.86 25.163V25.979H119.452V25.163H113.612V22.347H118.156V21.531H109.436V18.987H117.836V14.955H108.444V15.755H116.876V18.203H108.476V22.347H112.652V25.163H106.86ZM128.276 15.147V17.819C128.276 20.427 126.388 23.083 124.484 24.027L125.092 24.827C126.66 24.011 128.148 22.171 128.788 20.011C129.428 22.059 130.916 23.803 132.452 24.587L133.06 23.819C131.14 22.907 129.236 20.347 129.236 17.819V15.147H128.276ZM134.836 27.803H135.796V13.867H134.836V27.803ZM138.852 14.923V15.739H142.084V16.555C142.084 18.635 140.516 20.411 138.516 21.147L139.044 21.915C140.66 21.291 142.004 20.011 142.58 18.363C143.156 19.867 144.436 21.051 145.988 21.627L146.484 20.843C144.532 20.155 143.044 18.475 143.044 16.539V15.739H146.26V14.923H138.852ZM140.324 23.867H148.26V27.787H149.236V23.051H140.324V23.867ZM148.26 22.235H149.236V18.507H151.38V17.675H149.236V13.883H148.26V22.235ZM162.133 13.883V27.787H163.109V20.539H165.493V19.723H163.109V13.883H162.133ZM152.421 16.987H160.677V16.171H157.093V14.027H156.101V16.171H152.421V16.987ZM153.301 21.435C153.301 23.291 154.693 24.571 156.613 24.571C158.549 24.571 159.941 23.291 159.941 21.435C159.941 19.579 158.549 18.299 156.613 18.299C154.693 18.299 153.301 19.579 153.301 21.435ZM154.229 21.435C154.229 20.107 155.221 19.115 156.613 19.115C158.005 19.115 159.013 20.107 159.013 21.435C159.013 22.763 158.005 23.755 156.613 23.755C155.221 23.755 154.229 22.763 154.229 21.435ZM176.837 13.883V27.787H177.797V13.883H176.837ZM166.693 24.299L167.221 25.083C171.749 22.875 173.717 19.323 173.717 15.403H167.285V16.219H172.741C172.501 19.611 170.485 22.475 166.693 24.299Z" fill="black"/>
</svg>
